<svg width="40" height="40" viewBox="0 0 40 40" fill="none" xmlns="http://www.w3.org/2000/svg">
<path d="M2.95237 17.0476C4.58292 7.63248 13.5372 1.32182 22.9524 2.95237V2.95237C32.3675 4.58292 38.6782 13.5372 37.0476 22.9524V22.9524C35.4171 32.3675 26.4628 38.6782 17.0476 37.0476V37.0476C7.63248 35.4171 1.32182 26.4628 2.95237 17.0476V17.0476Z" fill="white"/>
<path d="M4.39788 20.0499C4.39788 11.2908 11.4985 4.19025 20.2575 4.19025V4.19025C29.0165 4.19025 36.1171 11.2908 36.1171 20.0499V20.0499C36.1171 28.8089 29.0165 35.9095 20.2575 35.9095V35.9095C11.4985 35.9095 4.39788 28.8089 4.39788 20.0499V20.0499Z" fill="#3758F9"/>
<path d="M27.0159 21.0411C26.4182 21.0429 25.8379 21.2429 25.3661 21.6098C24.8942 21.9767 24.5575 22.4897 24.4085 23.0686H21.6092C21.0716 23.0681 20.5562 22.8543 20.1761 22.4742C19.796 22.094 19.5822 21.5786 19.5817 21.0411V18.3377C19.579 17.6042 19.3354 16.8918 18.8883 16.3102H24.4085C24.573 16.9473 24.9642 17.5025 25.5087 17.8718C26.0533 18.2411 26.7139 18.3991 27.3666 18.3162C28.0193 18.2333 28.6194 17.9152 29.0544 17.4215C29.4894 16.9278 29.7293 16.2924 29.7293 15.6344C29.7293 14.9764 29.4894 14.341 29.0544 13.8473C28.6194 13.3536 28.0193 13.0355 27.3666 12.9526C26.7139 12.8697 26.0533 13.0277 25.5087 13.397C24.9642 13.7663 24.573 14.3215 24.4085 14.9586H16.1065C15.942 14.3215 15.5508 13.7663 15.0062 13.397C14.4617 13.0277 13.8011 12.8697 13.1484 12.9526C12.4956 13.0355 11.8956 13.3536 11.4606 13.8473C11.0256 14.341 10.7857 14.9764 10.7857 15.6344C10.7857 16.2924 11.0256 16.9278 11.4606 17.4215C11.8956 17.9152 12.4956 18.2333 13.1484 18.3162C13.8011 18.3991 14.4617 18.2411 15.0062 17.8718C15.5508 17.5025 15.942 16.9473 16.1065 16.3102H16.2025C16.74 16.3108 17.2554 16.5246 17.6356 16.9047C18.0157 17.2848 18.2294 17.8002 18.23 18.3377V21.0411C18.2311 21.937 18.5874 22.7958 19.2209 23.4293C19.8544 24.0628 20.7133 24.4192 21.6092 24.4203H24.4085C24.5356 24.9088 24.7973 25.3519 25.1636 25.6993C25.53 26.0466 25.9864 26.2842 26.4811 26.3852C26.9757 26.4861 27.4888 26.4463 27.9619 26.2702C28.4351 26.0942 28.8494 25.789 29.1578 25.3893C29.4662 24.9896 29.6563 24.5115 29.7066 24.0091C29.7569 23.5068 29.6653 23.0004 29.4422 22.5476C29.2191 22.0947 28.8735 21.7134 28.4446 21.4471C28.0157 21.1808 27.5207 21.0402 27.0159 21.0411ZM27.0159 14.2827C27.2832 14.2827 27.5445 14.362 27.7668 14.5105C27.9891 14.659 28.1623 14.8701 28.2646 15.1171C28.3669 15.3641 28.3937 15.6359 28.3416 15.8981C28.2894 16.1603 28.1607 16.4011 27.9716 16.5902C27.7826 16.7792 27.5418 16.9079 27.2796 16.9601C27.0174 17.0122 26.7456 16.9855 26.4986 16.8832C26.2516 16.7809 26.0405 16.6076 25.892 16.3853C25.7435 16.1631 25.6642 15.9017 25.6642 15.6344C25.6645 15.276 25.8071 14.9324 26.0605 14.679C26.3139 14.4256 26.6575 14.2831 27.0159 14.2827ZM13.4991 16.9861C13.2318 16.9861 12.9705 16.9068 12.7482 16.7583C12.5259 16.6097 12.3527 16.3986 12.2504 16.1517C12.148 15.9047 12.1213 15.6329 12.1734 15.3707C12.2256 15.1085 12.3543 14.8677 12.5434 14.6786C12.7324 14.4896 12.9732 14.3608 13.2354 14.3087C13.4976 14.2565 13.7694 14.2833 14.0164 14.3856C14.2634 14.4879 14.4745 14.6612 14.623 14.8834C14.7715 15.1057 14.8508 15.3671 14.8508 15.6344C14.8504 15.9928 14.7079 16.3364 14.4545 16.5898C14.2011 16.8432 13.8575 16.9857 13.4991 16.9861ZM27.0159 25.0961C26.7485 25.0961 26.4872 25.0168 26.2649 24.8683C26.0426 24.7198 25.8694 24.5087 25.7671 24.2617C25.6648 24.0147 25.638 23.7429 25.6902 23.4807C25.7423 23.2185 25.871 22.9777 26.0601 22.7886C26.2491 22.5996 26.49 22.4709 26.7522 22.4187C27.0144 22.3666 27.2861 22.3933 27.5331 22.4956C27.7801 22.5979 27.9912 22.7712 28.1397 22.9935C28.2883 23.2158 28.3675 23.4771 28.3675 23.7444C28.367 24.1027 28.2244 24.4462 27.971 24.6996C27.7177 24.953 27.3742 25.0956 27.0159 25.0961Z" fill="white"/>
</svg>
